<svg width="369" height="190" viewBox="0 0 369 190" fill="none" xmlns="http://www.w3.org/2000/svg">
<g clip-path="url(#clip0_1602_8693)">
<path d="M368.39 0H0V189.25H368.39V0Z" fill="white"/>
<path d="M363.35 5.04004H5.06982V121.99H363.35V5.04004Z" fill="#EE0701"/>
<path d="M363.28 127.01H5V184.22H363.28V127.01Z" fill="#5C5C5C"/>
<path d="M214.85 107.02L211.63 96.2399L199.56 96.2299L196.62 107.02H186.69L199.52 64.8799H212.09L225.19 107.02H214.85ZM205.49 72.0699H205.35C204.74 74.5499 204.1 77.7599 203.43 80.1999L200.94 89.0899H210.21L207.6 80.1999C206.89 77.6999 206.14 74.5399 205.49 72.0699Z" fill="white"/>
<path d="M255.96 107.02C255.31 105.79 254.26 102.42 253.06 97.2C251.88 91.94 250.12 90.56 246.22 90.5H243.43V107.02H233.91V65.46C236.99 64.94 241.53 64.55 246.63 64.55C252.87 64.55 257.27 65.5 260.28 67.88C262.81 69.88 264.19 72.85 264.19 76.74C264.19 82.07 260.37 85.79 256.76 87.08V87.28C259.68 88.46 261.32 91.27 262.39 95.12C263.69 99.87 264.96 105.39 265.79 107.02H255.96ZM247.7 71.69C245.41 71.69 244.1 71.84 243.43 72.02V83.56H247.13C251.83 83.56 254.65 81.17 254.65 77.52C254.66 73.69 252.03 71.72 247.7 71.69Z" fill="white"/>
<path d="M304.47 102.01C300.03 105.71 293.24 107.47 285.03 107.46C280.07 107.46 276.53 107.16 274.19 106.84V65.46C277.69 64.89 282.27 64.55 287.06 64.55C295.05 64.55 300.28 65.87 304.32 68.91C308.7 72.18 311.46 77.48 311.46 84.92C311.46 93.03 308.53 98.61 304.47 102.01ZM288.07 71.94C286 71.94 284.61 72.11 283.78 72.3L283.77 99.81C284.61 99.96 285.93 99.97 287.07 99.97C295.64 100.05 301.31 95.31 301.31 85.26C301.32 76.21 296.21 71.94 288.07 71.94Z" fill="white"/>
<path d="M29.22 106.98H20.29V64.9099H29.22V106.98Z" fill="white"/>
<path d="M52.9003 106.98H42.2303L29.6103 86.0399H29.5103L29.5603 85.9499L29.5103 85.8699H29.6103L42.2303 64.9299H52.9003L39.6503 85.9499L52.9003 106.98Z" fill="white"/>
<path d="M87.4598 107.02H60.5498V64.8899L86.5598 64.8799V72.7399H70.1398V81.4399H85.6298V89.2199H70.1398V99.1599L87.4598 99.1699V107.02Z" fill="white"/>
<path d="M132.02 107.02H121.97L113.02 90.8799C110.51 86.3399 107.74 80.9399 105.7 75.9799L105.49 75.9999C105.79 81.5799 105.9 87.5599 105.9 94.4499V107.02H97.1001V64.8799H108.28L116.95 80.2399C119.47 84.6499 121.92 89.9499 123.82 94.6999L123.97 94.6899C123.39 89.1099 123.21 83.4399 123.2 77.0699V64.8799H132V107.02" fill="white"/>
<path d="M178.34 107.02H168.28L159.32 90.8799C156.81 86.3399 154.04 80.9399 152 75.9799L151.8 75.9999C152.1 81.5799 152.22 87.5699 152.22 94.4499V107.02H143.41L143.42 64.8799H154.59L163.27 80.2399C165.79 84.6499 168.23 89.9399 170.14 94.6999L170.31 94.6799C169.73 89.1099 169.54 83.4399 169.53 77.0699L169.54 64.8799H178.34V107.02Z" fill="white"/>
<path d="M331.21 107.67C326.42 107.67 321.64 106.36 319.29 105.04L321.23 97.13C323.74 98.48 327.72 99.77 331.81 99.78C336.16 99.78 338.47 97.98 338.47 95.22C338.47 92.66 336.46 91.14 331.42 89.37C324.39 86.87 319.79 83.04 319.79 76.88C319.79 69.69 325.84 64.21 335.77 64.21C340.58 64.21 344.05 65.17 346.55 66.34L344.43 74.03C342.76 73.23 339.73 72.03 335.63 72.04C331.51 72.03 329.53 73.93 329.53 76.07C329.53 78.72 331.86 79.9 337.32 81.96C344.78 84.75 348.23 88.63 348.24 94.58C348.23 101.63 342.83 107.67 331.21 107.67Z" fill="white"/>
<path d="M309.88 174.12L304.19 161.24C302.54 157.62 300.78 157.62 297.96 157.62H294.77V174.12H289.45V136.97H298.55C305.89 136.97 312.97 138.14 312.97 147.03C312.97 151.55 309.62 154.75 305.3 155.49V155.6C306.95 156.24 307.75 157.04 308.92 159.32L315.95 174.12H309.88ZM307.33 147.14C307.33 143.79 304.78 141.66 299.88 141.66H294.77V152.94H299.29C304.35 152.94 307.33 150.71 307.33 147.14Z" fill="white"/>
<path d="M259.91 174.12H254.59V157.2H236.81V174.12H231.49V136.97H236.81V152.52H254.59V136.97H259.91V174.12Z" fill="white"/>
<path d="M277.63 174.12H272.31V136.97H277.63V174.12Z" fill="white"/>
<path d="M346.02 141.66H330.53V152.52H344.63V157.2H330.53V169.44H346.02V174.12H325.21V136.97H346.02V141.66Z" fill="white"/>
</g>
<defs>
<clipPath id="clip0_1602_8693">
<rect width="368.39" height="189.25" fill="white"/>
</clipPath>
</defs>
</svg>
